<mxfile host="Electron" modified="2023-07-02T13:33:20.049Z" agent="Mozilla/5.0 (Macintosh; Intel Mac OS X 10_15_7) AppleWebKit/537.36 (KHTML, like Gecko) draw.io/21.5.1 Chrome/112.0.5615.204 Electron/24.6.0 Safari/537.36" etag="ZVe8D8IBk62dnAXLmGf-" version="21.5.1" type="device">
  <diagram name="Page-1" id="FFV1773OcgWr84hGaA0s">
    <mxGraphModel dx="1114" dy="999" grid="1" gridSize="10" guides="1" tooltips="1" connect="1" arrows="1" fold="1" page="1" pageScale="1" pageWidth="850" pageHeight="1100" math="0" shadow="0">
      <root>
        <mxCell id="0" />
        <mxCell id="1" parent="0" />
        <mxCell id="O4bdinVBLlnjQzcxK2iS-24" style="edgeStyle=orthogonalEdgeStyle;rounded=0;sketch=1;hachureGap=4;jiggle=2;curveFitting=1;orthogonalLoop=1;jettySize=auto;html=1;entryX=0.5;entryY=0;entryDx=0;entryDy=0;fontFamily=Architects Daughter;fontSource=https%3A%2F%2Ffonts.googleapis.com%2Fcss%3Ffamily%3DArchitects%2BDaughter;fontSize=16;strokeWidth=3;" edge="1" parent="1" source="O4bdinVBLlnjQzcxK2iS-4" target="O4bdinVBLlnjQzcxK2iS-22">
          <mxGeometry relative="1" as="geometry" />
        </mxCell>
        <mxCell id="O4bdinVBLlnjQzcxK2iS-4" value="&lt;b&gt;&lt;font style=&quot;font-size: 28px;&quot; face=&quot;FZJingLeiS-R-GB&quot;&gt;USER 1&lt;/font&gt;&lt;/b&gt;" style="verticalLabelPosition=bottom;verticalAlign=top;html=1;shape=mxgraph.basic.smiley;sketch=1;hachureGap=4;jiggle=2;curveFitting=1;fontFamily=Architects Daughter;fontSource=https%3A%2F%2Ffonts.googleapis.com%2Fcss%3Ffamily%3DArchitects%2BDaughter;fontSize=20;strokeWidth=3;fillColor=#fff2cc;strokeColor=#d6b656;" vertex="1" parent="1">
          <mxGeometry x="250" y="120" width="50" height="50" as="geometry" />
        </mxCell>
        <mxCell id="O4bdinVBLlnjQzcxK2iS-5" style="edgeStyle=orthogonalEdgeStyle;rounded=0;sketch=1;hachureGap=4;jiggle=2;curveFitting=1;orthogonalLoop=1;jettySize=auto;html=1;entryX=0.5;entryY=1;entryDx=0;entryDy=0;fontFamily=Architects Daughter;fontSource=https%3A%2F%2Ffonts.googleapis.com%2Fcss%3Ffamily%3DArchitects%2BDaughter;fontSize=16;strokeWidth=3;" edge="1" parent="1" source="O4bdinVBLlnjQzcxK2iS-6" target="O4bdinVBLlnjQzcxK2iS-20">
          <mxGeometry relative="1" as="geometry" />
        </mxCell>
        <mxCell id="O4bdinVBLlnjQzcxK2iS-6" value="&lt;font style=&quot;font-size: 28px;&quot; face=&quot;FZJingLeiS-R-GB&quot;&gt;DATABASE&lt;/font&gt;" style="shape=cylinder3;whiteSpace=wrap;html=1;boundedLbl=1;backgroundOutline=1;size=15;sketch=1;hachureGap=4;jiggle=2;curveFitting=1;fontFamily=Architects Daughter;fontSource=https%3A%2F%2Ffonts.googleapis.com%2Fcss%3Ffamily%3DArchitects%2BDaughter;fontSize=20;strokeWidth=3;fillColor=#dae8fc;strokeColor=#6c8ebf;" vertex="1" parent="1">
          <mxGeometry x="345" y="670" width="200" height="90" as="geometry" />
        </mxCell>
        <mxCell id="O4bdinVBLlnjQzcxK2iS-7" style="edgeStyle=orthogonalEdgeStyle;rounded=0;sketch=1;hachureGap=4;jiggle=2;curveFitting=1;orthogonalLoop=1;jettySize=auto;html=1;exitX=0.5;exitY=1;exitDx=0;exitDy=0;exitPerimeter=0;entryX=0.5;entryY=0;entryDx=0;entryDy=0;fontFamily=Architects Daughter;fontSource=https%3A%2F%2Ffonts.googleapis.com%2Fcss%3Ffamily%3DArchitects%2BDaughter;fontSize=16;strokeWidth=3;" edge="1" parent="1" source="O4bdinVBLlnjQzcxK2iS-8" target="O4bdinVBLlnjQzcxK2iS-11">
          <mxGeometry relative="1" as="geometry" />
        </mxCell>
        <mxCell id="O4bdinVBLlnjQzcxK2iS-8" value="&lt;b&gt;&lt;font style=&quot;font-size: 28px;&quot; face=&quot;FZJingLeiS-R-GB&quot;&gt;USER 2&lt;/font&gt;&lt;/b&gt;" style="verticalLabelPosition=bottom;verticalAlign=top;html=1;shape=mxgraph.basic.smiley;sketch=1;hachureGap=4;jiggle=2;curveFitting=1;fontFamily=Architects Daughter;fontSource=https%3A%2F%2Ffonts.googleapis.com%2Fcss%3Ffamily%3DArchitects%2BDaughter;fontSize=20;strokeWidth=3;fillColor=#fff2cc;strokeColor=#d6b656;" vertex="1" parent="1">
          <mxGeometry x="420" y="120" width="50" height="50" as="geometry" />
        </mxCell>
        <mxCell id="O4bdinVBLlnjQzcxK2iS-23" style="edgeStyle=orthogonalEdgeStyle;rounded=0;sketch=1;hachureGap=4;jiggle=2;curveFitting=1;orthogonalLoop=1;jettySize=auto;html=1;entryX=0.5;entryY=0;entryDx=0;entryDy=0;fontFamily=Architects Daughter;fontSource=https%3A%2F%2Ffonts.googleapis.com%2Fcss%3Ffamily%3DArchitects%2BDaughter;fontSize=16;strokeWidth=3;" edge="1" parent="1" source="O4bdinVBLlnjQzcxK2iS-10" target="O4bdinVBLlnjQzcxK2iS-21">
          <mxGeometry relative="1" as="geometry" />
        </mxCell>
        <mxCell id="O4bdinVBLlnjQzcxK2iS-10" value="&lt;b&gt;&lt;font style=&quot;font-size: 28px;&quot; face=&quot;FZJingLeiS-R-GB&quot;&gt;USER 3&lt;/font&gt;&lt;/b&gt;" style="verticalLabelPosition=bottom;verticalAlign=top;html=1;shape=mxgraph.basic.smiley;sketch=1;hachureGap=4;jiggle=2;curveFitting=1;fontFamily=Architects Daughter;fontSource=https%3A%2F%2Ffonts.googleapis.com%2Fcss%3Ffamily%3DArchitects%2BDaughter;fontSize=20;strokeWidth=3;fillColor=#fff2cc;strokeColor=#d6b656;" vertex="1" parent="1">
          <mxGeometry x="580" y="120" width="50" height="50" as="geometry" />
        </mxCell>
        <mxCell id="O4bdinVBLlnjQzcxK2iS-11" value="&lt;font style=&quot;font-size: 28px;&quot; face=&quot;FZJingLeiS-R-GB&quot;&gt;VIEW 2&lt;br&gt;&lt;/font&gt;" style="swimlane;whiteSpace=wrap;html=1;sketch=1;hachureGap=4;jiggle=2;curveFitting=1;fontFamily=Architects Daughter;fontSource=https%3A%2F%2Ffonts.googleapis.com%2Fcss%3Ffamily%3DArchitects%2BDaughter;fontSize=20;strokeWidth=3;" vertex="1" parent="1">
          <mxGeometry x="380" y="220" width="130" height="100" as="geometry">
            <mxRectangle x="310" y="220" width="120" height="50" as="alternateBounds" />
          </mxGeometry>
        </mxCell>
        <mxCell id="O4bdinVBLlnjQzcxK2iS-20" value="&lt;font style=&quot;font-size: 28px;&quot; face=&quot;FZJingLeiS-R-GB&quot;&gt;&lt;b&gt;INTERNAL SCHEMA&lt;/b&gt;&lt;/font&gt;" style="rounded=1;whiteSpace=wrap;html=1;sketch=1;hachureGap=4;jiggle=2;curveFitting=1;fontFamily=Architects Daughter;fontSource=https%3A%2F%2Ffonts.googleapis.com%2Fcss%3Ffamily%3DArchitects%2BDaughter;fontSize=20;fillColor=none;strokeWidth=3;" vertex="1" parent="1">
          <mxGeometry x="310" y="560" width="270" height="60" as="geometry" />
        </mxCell>
        <mxCell id="O4bdinVBLlnjQzcxK2iS-21" value="&lt;font style=&quot;font-size: 28px;&quot; face=&quot;FZJingLeiS-R-GB&quot;&gt;VIEW 3&lt;/font&gt;" style="swimlane;whiteSpace=wrap;html=1;sketch=1;hachureGap=4;jiggle=2;curveFitting=1;fontFamily=Architects Daughter;fontSource=https%3A%2F%2Ffonts.googleapis.com%2Fcss%3Ffamily%3DArchitects%2BDaughter;fontSize=20;strokeWidth=3;" vertex="1" parent="1">
          <mxGeometry x="540" y="220" width="130" height="100" as="geometry">
            <mxRectangle x="310" y="220" width="120" height="50" as="alternateBounds" />
          </mxGeometry>
        </mxCell>
        <mxCell id="O4bdinVBLlnjQzcxK2iS-22" value="&lt;font style=&quot;font-size: 28px;&quot; face=&quot;FZJingLeiS-R-GB&quot;&gt;VIEW 1&lt;/font&gt;" style="swimlane;whiteSpace=wrap;html=1;sketch=1;hachureGap=4;jiggle=2;curveFitting=1;fontFamily=Architects Daughter;fontSource=https%3A%2F%2Ffonts.googleapis.com%2Fcss%3Ffamily%3DArchitects%2BDaughter;fontSize=20;strokeWidth=3;" vertex="1" parent="1">
          <mxGeometry x="210" y="220" width="130" height="100" as="geometry">
            <mxRectangle x="310" y="220" width="120" height="50" as="alternateBounds" />
          </mxGeometry>
        </mxCell>
        <mxCell id="O4bdinVBLlnjQzcxK2iS-26" style="edgeStyle=orthogonalEdgeStyle;rounded=0;sketch=1;hachureGap=4;jiggle=2;curveFitting=1;orthogonalLoop=1;jettySize=auto;html=1;entryX=0.5;entryY=0;entryDx=0;entryDy=0;fontFamily=Architects Daughter;fontSource=https%3A%2F%2Ffonts.googleapis.com%2Fcss%3Ffamily%3DArchitects%2BDaughter;fontSize=16;strokeWidth=3;startArrow=classic;startFill=1;" edge="1" parent="1" source="O4bdinVBLlnjQzcxK2iS-25" target="O4bdinVBLlnjQzcxK2iS-20">
          <mxGeometry relative="1" as="geometry" />
        </mxCell>
        <mxCell id="O4bdinVBLlnjQzcxK2iS-27" style="edgeStyle=orthogonalEdgeStyle;rounded=0;sketch=1;hachureGap=4;jiggle=2;curveFitting=1;orthogonalLoop=1;jettySize=auto;html=1;entryX=0.5;entryY=1;entryDx=0;entryDy=0;fontFamily=Architects Daughter;fontSource=https%3A%2F%2Ffonts.googleapis.com%2Fcss%3Ffamily%3DArchitects%2BDaughter;fontSize=16;strokeWidth=3;startArrow=classic;startFill=1;" edge="1" parent="1" source="O4bdinVBLlnjQzcxK2iS-25" target="O4bdinVBLlnjQzcxK2iS-22">
          <mxGeometry relative="1" as="geometry" />
        </mxCell>
        <mxCell id="O4bdinVBLlnjQzcxK2iS-28" style="edgeStyle=orthogonalEdgeStyle;rounded=0;sketch=1;hachureGap=4;jiggle=2;curveFitting=1;orthogonalLoop=1;jettySize=auto;html=1;entryX=0.5;entryY=1;entryDx=0;entryDy=0;fontFamily=Architects Daughter;fontSource=https%3A%2F%2Ffonts.googleapis.com%2Fcss%3Ffamily%3DArchitects%2BDaughter;fontSize=16;strokeWidth=3;startArrow=classic;startFill=1;" edge="1" parent="1" source="O4bdinVBLlnjQzcxK2iS-25" target="O4bdinVBLlnjQzcxK2iS-11">
          <mxGeometry relative="1" as="geometry" />
        </mxCell>
        <mxCell id="O4bdinVBLlnjQzcxK2iS-29" style="edgeStyle=orthogonalEdgeStyle;rounded=0;sketch=1;hachureGap=4;jiggle=2;curveFitting=1;orthogonalLoop=1;jettySize=auto;html=1;entryX=0.5;entryY=1;entryDx=0;entryDy=0;fontFamily=Architects Daughter;fontSource=https%3A%2F%2Ffonts.googleapis.com%2Fcss%3Ffamily%3DArchitects%2BDaughter;fontSize=16;strokeWidth=3;startArrow=classic;startFill=1;" edge="1" parent="1" source="O4bdinVBLlnjQzcxK2iS-25" target="O4bdinVBLlnjQzcxK2iS-21">
          <mxGeometry relative="1" as="geometry" />
        </mxCell>
        <mxCell id="O4bdinVBLlnjQzcxK2iS-25" value="&lt;font style=&quot;font-size: 28px;&quot; face=&quot;FZJingLeiS-R-GB&quot;&gt;&lt;b&gt;SCHEMA&lt;/b&gt;&lt;/font&gt;" style="rounded=1;whiteSpace=wrap;html=1;sketch=1;hachureGap=4;jiggle=2;curveFitting=1;fontFamily=Architects Daughter;fontSource=https%3A%2F%2Ffonts.googleapis.com%2Fcss%3Ffamily%3DArchitects%2BDaughter;fontSize=20;fillColor=none;strokeWidth=3;" vertex="1" parent="1">
          <mxGeometry x="310" y="430" width="270" height="60" as="geometry" />
        </mxCell>
      </root>
    </mxGraphModel>
  </diagram>
</mxfile>
